<svg viewBox="0 0 200 200"  
        width="600"
        height="600" 
        xmlns="http://www.w3.org/2000/svg">
    <defs>
        <pattern id="avatar" patternUnits="userSpaceOnUse" width="100" height="100">
            <image href="./logo512.png" x="0" y="0" width="100" height="100" />
        </pattern>
    </defs>
    <path 
            fill="url(#avatar)" 
            d="M38.5,-46.1C47.9,-38,52.2,-24,53,-10.6C53.9,2.7,51.2,15.4,45.4,26.9C39.6,38.4,30.5,48.7,18.6,54.4C6.8,60.1,-7.9,61.2,-19.9,56.2C-31.9,51.2,-41.1,40.1,-48.2,27.9C-55.3,15.6,-60.3,2,-62.5,-15.4C-64.6,-32.8,-64,-54.2,-53.1,-62C-42.2,-69.7,-21.1,-64,-3.3,-60.1C14.6,-56.2,29.1,-54.1,38.5,-46.1Z" 
            transform="translate(100 100)" />
</svg>